<?xml version="1.0" standalone="no"?>
<!DOCTYPE svg PUBLIC "-//W3C//DTD SVG 20010904//EN"
 "http://www.w3.org/TR/2001/REC-SVG-20010904/DTD/svg10.dtd">
<svg version="1.0" xmlns="http://www.w3.org/2000/svg"
 width="186.000000pt" height="186.000000pt" viewBox="0 0 186.000000 186.000000"
 preserveAspectRatio="xMidYMid meet">
<metadata>
Created by potrace 1.11, written by Peter Selinger 2001-2013
</metadata>
<g transform="translate(0.000000,186.000000) scale(0.100000,-0.100000)"
fill="#000000" stroke="none">
<path d="M896 1764 c-23 -22 -23 -216 0 -238 8 -9 22 -16 29 -16 35 0 45 29
45 135 0 106 -10 135 -45 135 -7 0 -21 -7 -29 -16z"/>
<path d="M406 1638 c-9 -12 -16 -29 -16 -37 0 -7 25 -54 56 -102 60 -96 78
-106 114 -67 31 33 26 52 -42 155 -51 78 -83 93 -112 51z"/>
<path d="M1390 1637 c-22 -17 -110 -162 -110 -179 0 -19 32 -48 52 -48 19 0
35 19 91 111 52 84 56 103 28 119 -25 13 -42 12 -61 -3z"/>
<path d="M817 1414 c-1 -2 -16 -5 -32 -8 -30 -5 -65 -38 -65 -61 0 -31 47 -48
95 -33 35 10 185 12 194 2 3 -4 0 -9 -7 -11 -27 -10 -148 -118 -200 -178 -29
-33 -75 -95 -104 -135 -53 -77 -138 -245 -138 -273 0 -87 -133 107 -143 208
-11 114 60 180 208 192 97 8 133 45 85 88 -31 28 -169 17 -244 -19 -118 -58
-171 -172 -141 -303 17 -75 60 -153 126 -232 l58 -68 -13 -54 c-6 -30 -11 -69
-10 -87 1 -20 -3 -31 -10 -29 -15 4 -71 110 -92 172 -26 77 -77 101 -104 49
-13 -22 -11 -33 10 -96 71 -208 224 -356 446 -430 58 -19 89 -23 194 -22 108
0 135 4 201 27 198 68 340 205 418 403 28 73 36 126 35 234 -1 134 -18 203
-76 312 -118 223 -347 358 -603 356 -47 -1 -86 -2 -88 -4z m420 -196 c176
-120 274 -352 239 -568 -11 -64 -41 -147 -72 -193 -79 -119 -327 -111 -586 18
-70 35 -191 115 -203 135 -3 5 17 57 45 116 27 58 50 109 50 112 0 3 29 49 64
102 104 155 226 269 324 302 54 18 85 13 139 -24z m-574 -760 c169 -113 375
-185 524 -183 50 0 47 -8 -16 -39 -146 -75 -334 -75 -498 -1 -55 25 -76 53
-88 118 -7 36 2 147 11 147 3 0 33 -19 67 -42z"/>
<path d="M12 1279 c-7 -11 -10 -28 -7 -38 6 -20 198 -131 226 -131 21 0 45 41
36 62 -5 15 -206 128 -228 128 -8 0 -20 -9 -27 -21z"/>
<path d="M1706 1250 c-110 -60 -131 -79 -122 -114 11 -44 43 -42 136 10 147
82 163 100 122 137 -26 24 -37 21 -136 -33z"/>
</g>
</svg>
